<?xml version="1.0" standalone="no"?>
<!DOCTYPE svg PUBLIC "-//W3C//DTD SVG 20010904//EN"
 "http://www.w3.org/TR/2001/REC-SVG-20010904/DTD/svg10.dtd">
<svg version="1.0" xmlns="http://www.w3.org/2000/svg"
 width="266.000000pt" height="266.000000pt" viewBox="0 0 266.000000 266.000000"
 preserveAspectRatio="xMidYMid meet">
<metadata>
Created by potrace 1.14, written by Peter Selinger 2001-2017
</metadata>
<g transform="translate(0.000000,266.000000) scale(0.100000,-0.100000)"
fill="#000000" stroke="none">
<path d="M1276 2033 c-69 -95 -138 -258 -152 -362 -29 -198 26 -394 152 -548
l35 -43 27 33 c117 140 179 314 169 477 -6 105 -28 193 -73 290 -32 68 -111
200 -120 200 -2 0 -19 -21 -38 -47z"/>
<path d="M845 1957 c-14 -47 -22 -252 -11 -303 2 -12 7 -37 10 -56 10 -66 58
-183 103 -250 48 -73 120 -143 200 -195 65 -41 81 -42 53 -2 -37 51 -70 119
-97 198 -33 97 -40 256 -16 375 l16 79 -29 25 c-38 31 -184 127 -207 135 -10
4 -19 1 -22 -6z"/>
<path d="M1697 1930 c-79 -46 -164 -109 -172 -129 -3 -7 -1 -30 5 -50 30 -114
31 -256 1 -365 -21 -74 -67 -176 -112 -245 l-22 -33 29 15 c203 109 329 292
362 527 7 48 6 204 -1 255 -3 17 -5 38 -6 48 -1 24 -7 22 -84 -23z"/>
<path d="M490 1651 c0 -45 70 -198 134 -291 100 -149 287 -266 451 -285 33 -4
72 -9 88 -11 42 -7 32 8 -39 51 -158 97 -269 253 -319 449 -8 32 -16 61 -18
63 -9 8 -147 32 -219 38 -74 6 -78 6 -78 -14z"/>
<path d="M2016 1662 c-2 -1 -19 -4 -37 -6 -98 -8 -156 -31 -148 -58 0 -2 -4
-15 -10 -31 -6 -15 -13 -39 -15 -53 -7 -37 -59 -146 -97 -201 -46 -67 -139
-156 -209 -199 -33 -20 -60 -40 -60 -44 0 -9 74 -4 150 11 30 6 96 30 145 54
143 69 254 183 335 345 28 56 69 162 70 182 0 6 -118 6 -124 0z"/>
<path d="M500 1329 c-59 -17 -200 -71 -200 -78 0 -11 94 -103 150 -146 211
-162 435 -201 679 -120 60 20 66 35 14 36 -147 3 -325 77 -439 183 -39 35 -81
81 -95 100 -26 39 -44 43 -109 25z"/>
<path d="M2019 1311 c-96 -115 -167 -172 -279 -225 -81 -39 -196 -67 -275 -67
-59 -1 -50 -8 61 -45 107 -35 255 -41 358 -12 94 25 185 68 262 123 71 51 174
147 174 163 0 18 -207 91 -261 92 -9 0 -27 -13 -40 -29z"/>
<path d="M75 941 c-3 -5 4 -12 15 -16 20 -6 20 -6 0 -45 -11 -22 -20 -46 -20
-55 0 -31 20 -14 41 35 18 42 24 48 40 40 11 -7 20 -7 24 0 3 5 -12 18 -34 30
-45 22 -57 24 -66 11z"/>
<path d="M2468 928 c-16 -5 -28 -13 -28 -18 0 -4 11 -33 25 -64 25 -56 51 -69
39 -20 -7 28 6 31 40 8 16 -10 26 -11 30 -5 4 6 -2 16 -13 23 -14 8 -19 19
-15 34 6 22 -18 55 -39 53 -7 0 -24 -5 -39 -11z m52 -33 c0 -7 -6 -18 -14 -24
-12 -10 -17 -8 -25 7 -7 13 -7 22 1 30 13 13 38 5 38 -13z"/>
<path d="M220 826 c-23 -59 -18 -100 7 -52 9 18 20 26 30 22 8 -3 19 -6 24 -6
6 0 9 -13 7 -30 -2 -16 2 -29 7 -29 14 0 51 107 40 116 -4 5 -9 4 -12 -2 -11
-30 -22 -37 -48 -31 -20 5 -25 11 -20 24 11 28 11 34 -1 39 -6 2 -21 -21 -34
-51z"/>
<path d="M2313 864 l-33 -14 25 -57 c14 -31 27 -58 28 -60 9 -8 77 23 77 35 0
10 -6 12 -17 7 -41 -17 -53 -17 -53 -2 0 9 9 21 20 27 23 12 27 35 5 26 -8 -3
-22 -9 -30 -12 -26 -11 -17 26 10 38 26 12 34 29 13 27 -7 0 -28 -7 -45 -15z"/>
<path d="M406 758 c-9 -33 -14 -63 -11 -66 3 -3 21 -11 40 -18 44 -15 59 2 16
19 -41 15 -41 40 0 35 35 -3 46 15 12 20 -15 2 -23 10 -23 22 0 16 4 17 32 9
17 -5 34 -6 37 -4 8 9 -13 23 -50 33 l-36 10 -17 -60z"/>
<path d="M2128 799 l-26 -10 20 -60 c21 -63 31 -69 77 -44 35 18 44 49 26 85
-21 40 -46 47 -97 29z m82 -65 c0 -7 -10 -20 -22 -29 -22 -15 -24 -14 -35 12
-17 40 -16 61 5 66 18 4 52 -27 52 -49z"/>
<path d="M571 723 c-7 -27 -14 -56 -17 -65 -3 -12 0 -18 9 -18 8 0 17 9 20 20
7 29 23 25 36 -10 5 -16 17 -30 26 -30 13 0 14 4 5 21 -9 16 -8 24 4 38 27 30
20 60 -19 77 -49 20 -51 19 -64 -33z m68 3 c8 -10 8 -16 -3 -25 -20 -16 -45
-4 -39 20 6 22 26 25 42 5z"/>
<path d="M2003 753 c17 -60 18 -74 5 -64 -70 57 -78 62 -83 49 -3 -8 0 -39 7
-70 10 -44 16 -55 27 -49 11 7 11 15 2 42 -6 18 -10 34 -8 35 2 2 19 -10 38
-26 19 -16 41 -29 50 -30 15 0 16 5 7 38 -20 79 -23 87 -36 90 -9 1 -12 -4 -9
-15z"/>
<path d="M1816 722 c-10 -16 16 -133 29 -129 12 5 7 71 -9 112 -8 19 -15 25
-20 17z"/>
<path d="M758 662 c-35 -55 -35 -80 0 -50 22 19 49 12 55 -13 7 -27 30 -24 24
4 -3 12 -9 43 -12 70 -4 26 -12 47 -19 47 -6 0 -28 -26 -48 -58z m48 -7 c1 -8
-4 -15 -12 -15 -16 0 -16 2 -8 25 7 17 17 13 20 -10z"/>
<path d="M1682 703 c-32 -4 -33 -5 -28 -46 3 -23 5 -52 5 -64 1 -14 7 -23 17
-23 11 0 15 8 12 27 -2 17 2 28 10 29 6 1 19 2 28 3 8 0 12 6 8 12 -3 6 -17 9
-30 6 -18 -3 -24 0 -24 14 0 12 9 19 28 21 15 2 26 7 25 13 -2 12 -9 13 -51 8z"/>
<path d="M933 688 c0 -7 -4 -37 -8 -65 -7 -46 -5 -53 9 -53 10 0 16 7 14 17
-2 13 5 18 27 20 26 2 55 25 55 43 0 30 -96 68 -97 38z m67 -38 c0 -15 -7 -20
-25 -20 -27 0 -28 1 -19 24 9 24 44 20 44 -4z"/>
<path d="M1099 643 c0 -21 -2 -50 -4 -65 -2 -19 1 -28 11 -28 8 0 14 10 15 23
0 12 3 41 5 65 3 33 1 42 -11 42 -11 0 -15 -11 -16 -37z"/>
<path d="M1233 669 c-16 -6 -23 -17 -23 -34 0 -19 8 -28 37 -40 43 -18 34 -43
-9 -26 -25 9 -38 6 -38 -10 0 -11 57 -21 80 -14 14 4 20 15 20 34 0 23 -6 30
-31 37 -36 11 -35 29 1 29 14 1 24 5 23 10 -3 15 -37 23 -60 14z"/>
<path d="M1370 662 c0 -9 7 -12 20 -9 11 3 20 2 21 -1 1 -4 2 -26 3 -49 1 -24
7 -48 14 -55 9 -9 12 2 12 50 0 53 3 62 16 60 10 -2 19 3 21 10 4 9 -10 12
-51 10 -40 -2 -56 -6 -56 -16z"/>
</g>
</svg>
